Coordinates
version=1
nRows=7
nColumns=40
inDegrees=yes

Units are S.I. units (second, meters, Newtons, ...)
Angles are in degrees.

endheader
time	pelvis_tilt	pelvis_list	pelvis_rotation	pelvis_tx	pelvis_ty	pelvis_tz	hip_flexion_r	hip_adduction_r	hip_rotation_r	knee_angle_r	knee_angle_r_beta	ankle_angle_r	subtalar_angle_r	mtp_angle_r	hip_flexion_l	hip_adduction_l	hip_rotation_l	knee_angle_l	knee_angle_l_beta	ankle_angle_l	subtalar_angle_l	mtp_angle_l	lumbar_extension	lumbar_bending	lumbar_rotation	arm_flex_r	arm_add_r	arm_rot_r	elbow_flex_r	pro_sup_r	wrist_flex_r	wrist_dev_r	arm_flex_l	arm_add_l	arm_rot_l	elbow_flex_l	pro_sup_l	wrist_flex_l	wrist_dev_l
     48.24000000	     -2.31722400	     -3.89865678	      1.95421651	      1.02561037	      0.93185647	      0.42271535	     28.05709169	     -7.19887859	     -4.52499250	     68.66765926	     68.66765926	     -3.94505481	    -17.40864426	      3.38282417	     13.85388443	     -4.07514846	     -5.28669057	     23.48795659	     23.48795659	     14.07383827	    -11.73920845	      1.33791416	    -11.04321978	      5.21877531	      1.34089978	      8.20782813	    -14.00855505	     -9.64350439	     26.68384676	     45.79881587	      0.00000000	      0.00000000	     13.48743022	    -14.32756748	      0.06169256	     44.41693192	     45.86181680	      0.00000000	      0.00000000
     48.25342857	     -2.34825310	     -3.93631823	      1.58995076	      1.02542663	      0.93255612	      0.42227881	     28.81669667	     -7.08334609	     -4.63682109	     67.62584571	     67.62584571	     -3.33501661	    -17.63707883	      3.44851569	     13.12895037	     -4.04646087	     -5.39444596	     22.89895900	     22.89895900	     14.15671769	    -12.02153482	      1.52336245	    -11.03831491	      5.29954009	      1.27653530	      6.42168284	    -13.99295625	     -9.58370137	     25.82143224	     45.82844701	      0.00000000	      0.00000000	     14.45792105	    -14.59156723	     -0.15168196	     45.17373947	     45.91276368	      0.00000000	      0.00000000
     48.26685714	     -2.36502487	     -4.02070902	      1.22104989	      1.02526345	      0.93325334	      0.42199351	     29.46647760	     -6.89032998	     -4.81204031	     66.39697845	     66.39697845	     -2.70429127	    -17.83608661	      3.69708061	     12.38883489	     -4.11826029	     -5.66125469	     22.31278739	     22.31278739	     14.29069959	    -11.98539787	      1.54057575	    -11.08039306	      5.39669070	      1.09986252	      4.61904198	    -13.94537349	     -9.56242570	     25.37502265	     45.84151136	      0.00000000	      0.00000000	     15.24083118	    -14.94688735	     -0.40656145	     46.15611845	     45.96779390	      0.00000000	      0.00000000
     48.28028571	     -2.36582609	     -4.10739697	      0.82449478	      1.02509621	      0.93389997	      0.42180126	     30.01572853	     -6.66015800	     -4.98647195	     64.96079871	     64.96079871	     -2.04973834	    -17.95901133	      4.13135531	     11.62313826	     -4.20070740	     -6.00223389	     21.71359608	     21.71359608	     14.42498321	    -11.89581699	      1.50334500	    -11.16633771	      5.50719647	      1.03928885	      2.72996883	    -13.93904546	     -9.54942951	     25.14260027	     45.84535961	      0.00000000	      0.00000000	     15.98385317	    -15.29186952	     -0.70789821	     47.40416792	     46.03022032	      0.00000000	      0.00000000
     48.29371429	     -2.48422289	     -4.21886354	      0.47129502	      1.02479246	      0.93427720	      0.42169138	     30.57939263	     -6.41547045	     -5.26477044	     63.24500029	     63.24500029	     -1.47590258	    -18.02329109	      4.36655656	     11.07424985	     -4.30629781	     -6.26084157	     21.23422130	     21.23422130	     14.57209663	    -11.84967480	      1.50994314	    -11.10068117	      5.66566504	      0.66798681	      1.16400184	    -13.84631866	     -9.55158294	     24.78555470	     45.85054113	      0.00000000	      0.00000000	     16.64746339	    -15.78984492	     -0.94871547	     48.10525592	     46.07168376	      0.00000000	      0.00000000
     48.30714286	     -2.49439205	     -4.30582022	      0.02269521	      1.02454228	      0.93472345	      0.42188364	     30.94916087	     -6.08432651	     -5.43349149	     61.26855939	     61.26855939	     -0.64844025	    -17.95584050	      5.43930495	     10.33797315	     -4.42863140	     -6.74426034	     20.65025658	     20.65025658	     14.60447065	    -11.67556906	      1.09141629	    -11.28765422	      5.73964914	      0.86053072	     -1.11775256	    -13.90952044	     -9.54341397	     25.91312569	     45.81079069	      0.00000000	      0.00000000	     16.94847102	    -16.05888269	     -1.48927708	     50.71379228	     46.18881965	      0.00000000	      0.00000000
     48.32057143	     -2.60614107	     -4.37818582	     -0.38137764	      1.02423875	      0.93496551	      0.42213426	     31.25958910	     -5.80438621	     -5.72760313	     58.88760489	     58.88760489	     -0.10432219	    -17.84779049	      5.60965877	      9.75302540	     -4.50016710	     -7.06641946	     20.12141022	     20.12141022	     14.73389548	    -11.63989640	      1.11635371	    -11.24336267	      5.85522589	      0.65675560	     -2.49167214	    -13.83133902	     -9.50214576	     25.53130085	     45.81666752	      0.00000000	      0.00000000	     17.63570453	    -16.45057564	     -1.72767054	     51.36716861	     46.22978699	      0.00000000	      0.00000000
